<?xml version="1.0" standalone="no"?><svg xmlns:xlink="http://www.w3.org/1999/xlink" xmlns="http://www.w3.org/2000/svg" viewBox="0 0 1000 583.3363150710032" preserveAspectRatio="xMaxYMax slice"><g transform="scale(1.0842682436264002)"><rect x="0" y="0" width="922.2857142857143" height="538" fill="#ffffff"/><rect x="563.4726530612245" y="102.32979591836735" width="25.91183673469388" height="25.91183673469388" fill="#ffffff"/><polygon points="563.47,102.33 576.4300000000001,102.33 563.47,115.28999999999999" fill="#fff6ec"/><polygon points="576.4300000000001,115.29 576.4300000000001,128.25 563.47,128.25" fill="#5caade"/><polygon points="576.43,115.29 589.39,115.29 576.43,128.25" fill="#ff8408"/><polygon points="640.33,102.33 666.24,128.24 640.33,128.24" fill="#ffefde"/><polygon points="743.1,102.33 743.1,128.24 717.19,128.24" fill="#ffdab5"/><rect x="97.0595918367347" y="173.91673469387757" width="36.45224489795918" height="36.45224489795918" fill="#ffffff"/><polygon points="173.92,173.92 210.37,210.37 173.92,210.37" fill="#ffd5ab"/><polygon points="287.22,173.92 287.22,210.37 250.77,210.37" fill="#ffebd7"/><polygon points="635.06,173.92 671.51,210.37 635.06,210.37" fill="#3a98d8"/><polygon points="711.92,173.92 748.37,173.92 711.92,210.37" fill="#ffcf9e"/><polygon points="14.93,245.5 61.92,245.5 14.93,292.49" fill="#ffcf9e"/><rect x="322.36081632653065" y="245.50367346938776" width="46.99265306122449" height="46.99265306122449" fill="#ffffff"/><polygon points="322.36,245.5 345.86,245.5 345.86,269" fill="#e8f3fa"/><polygon points="345.86,245.5 369.36,245.5 345.86,269" fill="#ffbe7c"/><rect x="399.21795918367354" y="245.50367346938776" width="46.99265306122449" height="46.99265306122449" fill="#ffffff"/><polygon points="399.22,245.5 422.72,245.5 399.22,269" fill="#69b1e1"/><rect x="476.0751020408164" y="245.50367346938776" width="46.99265306122449" height="46.99265306122449" fill="#ffffff"/><polygon points="499.58,269 499.58,292.5 476.08,292.5" fill="#fffefd"/><rect x="783.5036734693879" y="245.50367346938776" width="46.99265306122449" height="46.99265306122449" fill="#ffffff"/><polygon points="783.5,245.5 807,245.5 807,269" fill="#9ecdec"/><polygon points="830.5,245.5 830.5,269 807,269" fill="#ffcf9f"/><polygon points="807,269 807,292.5 783.5,292.5" fill="#fffaf5"/><polygon points="807,269 830.5,292.5 807,292.5" fill="#ffe4ca"/><rect x="860.3608163265307" y="245.50367346938776" width="46.99265306122449" height="46.99265306122449" fill="#ffffff"/><polygon points="883.86,245.5 907.36,245.5 883.86,269" fill="#9eccec"/><polygon points="883.86,269 907.36,269 883.86,292.5" fill="#ffb86f"/><polygon points="9.66,317.09 67.19,317.09 9.66,374.62" fill="#c8e2f4"/><polygon points="220.91,317.09 220.91,374.62 163.38,374.62" fill="#f9fcfe"/><rect x="240.23346938775512" y="317.09061224489795" width="57.533061224489785" height="57.533061224489785" fill="#ffffff"/><polygon points="269,317.09 269,345.85999999999996 240.23,345.85999999999996" fill="#b4d8f0"/><polygon points="240.23,345.86 269,345.86 240.23,374.63" fill="#3998d7"/><polygon points="269,345.86 297.77,345.86 269,374.63" fill="#ffd4a9"/><polygon points="605.1899999999999,317.09 605.1899999999999,374.62 547.66,374.62" fill="#ffc58a"/><rect x="624.5191836734695" y="317.09061224489795" width="57.533061224489785" height="57.533061224489785" fill="#ffffff"/><polygon points="624.52,345.86 653.29,374.63 624.52,374.63" fill="#1d89d2"/><polygon points="653.29,345.86 682.06,374.63 653.29,374.63" fill="#ffdbb6"/><polygon points="855.09,317.09 912.62,374.62 855.09,374.62" fill="#fcfdfe"/><rect x="81.24897959183674" y="388.6775510204082" width="68.0734693877551" height="68.0734693877551" fill="#ffffff"/><polygon points="81.25,388.68 115.28999999999999,388.68 115.28999999999999,422.72" fill="#ffd8b1"/><polygon points="115.29,388.68 149.33,422.72 115.29,422.72" fill="#ff9427"/><polygon points="81.25,422.71 115.28999999999999,422.71 115.28999999999999,456.75" fill="#ffead5"/><polygon points="115.29,422.71 149.33,456.75 115.29,456.75" fill="#208ad2"/><rect x="158.1061224489796" y="388.6775510204082" width="68.0734693877551" height="68.0734693877551" fill="#ffffff"/><polygon points="192.15,388.68 192.15,422.72 158.11,422.72" fill="#8dc4e8"/><polygon points="192.14,388.68 226.17999999999998,388.68 192.14,422.72" fill="#ffe7cf"/><polygon points="158.11,422.71 192.15,422.71 192.15,456.75" fill="#e2f0f9"/><polygon points="192.14,422.71 226.17999999999998,422.71 192.14,456.75" fill="#ffd7af"/><rect x="234.96326530612245" y="388.6775510204082" width="68.0734693877551" height="68.0734693877551" fill="#ffffff"/><polygon points="234.96,388.68 269,388.68 234.96,422.72" fill="#dbecf8"/><polygon points="269,388.68 303.04,422.72 269,422.72" fill="#ffe2c4"/><polygon points="269,422.71 303.04,456.75 269,456.75" fill="#ffb264"/><polygon points="388.68,388.68 456.75,388.68 456.75,456.75" fill="#f5fafd"/><polygon points="533.5999999999999,388.68 533.5999999999999,456.75 465.53,456.75" fill="#fffefd"/><polygon points="542.39,388.68 610.46,388.68 610.46,456.75" fill="#3c99d8"/><rect x="696.1061224489797" y="388.6775510204082" width="68.0734693877551" height="68.0734693877551" fill="#ffffff"/><polygon points="730.15,388.68 730.15,422.72 696.11,422.72" fill="#fff3e7"/><polygon points="730.14,388.68 764.18,388.68 730.14,422.72" fill="#ff8e1c"/><polygon points="696.11,422.71 730.15,422.71 696.11,456.75" fill="#ff8204"/><polygon points="772.96,388.68 841.03,456.75 772.96,456.75" fill="#ff9224"/><polygon points="76.86,461.14 76.86,538 0,538" fill="#ffebd6"/><polygon points="76.86,461.14 153.72,461.14 153.72,538" fill="#ffe4c9"/><polygon points="153.71,461.14 230.57,461.14 230.57,538" fill="#ff850a"/><polygon points="230.57,461.14 307.43,461.14 307.43,538" fill="#ffdebe"/><polygon points="307.43,461.14 384.29,461.14 307.43,538" fill="#ff8c19"/><rect x="384.28571428571433" y="461.14285714285717" width="76.85714285714286" height="76.85714285714286" fill="#ffffff"/><polygon points="384.29,461.14 422.72,461.14 422.72,499.57" fill="#badbf1"/><polygon points="422.71,461.14 461.14,461.14 422.71,499.57" fill="#ffc78e"/><polygon points="384.29,499.57 422.72,499.57 384.29,538" fill="#fffaf5"/><polygon points="422.71,499.57 461.14,538 422.71,538" fill="#dcedf8"/><rect x="461.14285714285717" y="461.14285714285717" width="76.85714285714286" height="76.85714285714286" fill="#ffffff"/><polygon points="461.14,461.14 499.57,499.57 461.14,499.57" fill="#64aee0"/><polygon points="538,461.14 538,499.57 499.57,499.57" fill="#ffdcb8"/><polygon points="461.14,499.57 499.57,499.57 461.14,538" fill="#ffbd7a"/><polygon points="499.57,499.57 538,538 499.57,538" fill="#e1eff9"/><polygon points="614.86,461.14 614.86,538 538,538" fill="#7ab9e4"/><polygon points="614.86,461.14 691.72,461.14 691.72,538" fill="#ff8a15"/><rect x="691.7142857142858" y="461.14285714285717" width="76.85714285714286" height="76.85714285714286" fill="#ffffff"/><polygon points="691.71,461.14 730.14,461.14 730.14,499.57" fill="#8dc3e8"/><polygon points="730.14,461.14 768.5699999999999,499.57 730.14,499.57" fill="#83bee6"/><polygon points="691.71,499.57 730.14,499.57 691.71,538" fill="#62ade0"/><polygon points="730.14,499.57 768.5699999999999,538 730.14,538" fill="#eff7fc"/><polygon points="768.57,461.14 845.4300000000001,461.14 845.4300000000001,538" fill="#ffc080"/><polygon points="845.43,461.14 922.29,461.14 845.43,538" fill="#eef6fc"/></g></svg>